<?xml version="1.0" standalone="no"?><!DOCTYPE svg PUBLIC "-//W3C//DTD SVG 1.1//EN" "http://www.w3.org/Graphics/SVG/1.1/DTD/svg11.dtd"><svg t="1695089338466" class="icon" viewBox="0 0 1024 1024" version="1.1" xmlns="http://www.w3.org/2000/svg" p-id="3238" width="128" height="128" xmlns:xlink="http://www.w3.org/1999/xlink"><path d="M848.896 834.56s10.24-24.064-11.264-18.944c-3.584 1.024-6.144 1.536-8.704 2.56 0.512 1.024 0.512 2.048 1.024 3.072 0.512 5.12 1.024 10.752 1.536 15.872l1.536 3.072c0.512 2.048 1.024 4.608 0.512 6.656-0.512 8.704-12.288 10.24-14.848 2.048-0.512-2.048-1.536-4.608-1.536-6.656-34.304 0-190.976 0-247.808 19.456L498.688 839.68s2.56 113.664 75.264 98.304 159.744-70.144 241.664-48.64c81.92 21.504 90.624-15.36 57.344-26.624 0 0 30.72-15.36 36.864-34.304 6.656-19.456-12.288-29.696-60.928 6.144z" fill="#606060" p-id="3239"></path><path d="M501.76 830.464s2.56 113.664 75.264 98.304 159.744-70.144 241.664-48.64 90.624-15.36 57.344-26.624c0 0 30.72-15.36 36.864-34.304 6.144-18.944-12.8-29.184-61.44 6.144 0 0 10.24-24.064-11.264-18.944s-24.064 15.36-13.824 26.624c0 0-190.464-2.56-254.464 18.944L501.76 830.464z" fill="#A0A0A0" p-id="3240"></path><path d="M851.968 825.344s10.24-24.064-11.264-18.944-24.064 15.36-13.824 26.624c0 0-190.464-2.56-254.464 18.944l-40.448-12.288 55.808 32.768s145.92-29.696 299.52-25.088c9.728-6.144 23.04-16.384 26.624-28.672 5.632-18.944-13.312-29.184-61.952 6.656z" fill="#C4C4C4" p-id="3241"></path><path d="M71.168 603.136c7.168-90.624 54.272-173.056 126.976-227.84 129.536-97.28 408.064-284.16 588.288-242.688 241.664 55.296 12.8 703.488-305.152 752.64-250.88 38.4-425.472-84.992-410.112-282.112z" fill="#58BC70" p-id="3242" data-spm-anchor-id="a313x.search_index.0.i2.24303a81Kjjufr" class=""></path><path d="M826.88 150.016c-11.776-8.192-25.088-13.824-40.448-17.408C605.696 91.136 327.68 278.016 198.144 375.296c-29.696 22.016-54.784 49.152-74.752 78.848C267.264 340.992 524.8 174.08 826.88 150.016z" fill="#D9EF7F" p-id="3243"></path><path d="M798.208 270.848s-153.6-85.504-158.208 39.424c-4.608 124.928 78.848 78.848 118.784 168.96" fill="#1A1A1A" p-id="3244"></path><path d="M82.944 540.672c104.448-41.984 228.864-189.44 227.328-213.504-0.512-8.192-7.68-14.336-17.408-18.944-36.352 24.576-68.608 47.616-94.72 67.584-55.296 41.472-95.744 99.328-115.2 164.864zM679.936 772.608c42.496-43.008 80.384-94.72 111.616-150.528-105.984-59.904-95.232-192.512-95.232-192.512-110.592 120.32-3.072 189.952-3.072 189.952s-110.592-9.728-224.768 75.776c-109.056 81.92 77.312-50.176 211.456 77.312z" fill="#FF4431" p-id="3245" data-spm-anchor-id="a313x.search_index.0.i4.24303a81Kjjufr" class="selected"></path><path d="M775.168 649.728l-78.848-66.56s9.728 9.728 0 47.616-11.264-11.264-66.56 30.208c-50.176 36.864 47.104 74.24 75.776 84.48 25.6-29.184 48.64-61.44 69.632-95.744z" fill="#FCEE21" p-id="3246"></path><path d="M617.984 523.264c5.632-14.336 10.24-26.112 14.336-36.352 4.096-10.24 8.192-19.456 11.264-27.648 3.584-8.192 6.144-15.872 9.216-22.016 2.56-6.656 5.632-12.8 8.704-18.944 1.024-1.536 1.536-3.072 2.56-4.608 0.512-1.536 1.536-3.072 2.048-4.608l2.56-4.608c1.536-2.56 2.56-5.632 4.096-8.192 5.632-10.752 13.312-21.504 22.016-31.232 9.216-9.728 19.968-18.944 33.28-25.6 6.656-3.584 13.824-6.144 21.504-7.68 7.68-1.536 16.384-2.048 25.088 1.024l1.536 0.512c1.536 0.512 2.56 2.048 2.048 4.096-0.512 1.024-1.024 1.536-1.536 2.048-1.536 0.512-4.096 2.048-5.632 3.584-2.048 1.536-3.584 3.072-5.632 5.12-3.584 3.584-6.656 7.68-9.216 12.288-5.632 8.704-10.24 17.92-14.848 27.136-4.096 9.728-8.192 19.456-11.264 29.184l-2.56 7.68-3.072 7.68-3.072 7.68-3.584 7.68c-10.24 19.968-24.064 37.376-40.96 51.712s-36.352 24.576-57.344 31.232c-1.536 0.512-2.56-0.512-3.072-1.536v-1.536l1.536-4.096z" fill="#232323" p-id="3247" data-spm-anchor-id="a313x.search_index.0.i3.24303a81Kjjufr" class="selected"></path><path d="M661.504 291.328c4.608 8.192 7.68 15.872 10.24 24.576 2.56 8.192 4.608 16.896 5.632 26.112 2.048 17.92 1.536 36.352-2.56 54.784-8.192 36.864-29.696 70.144-55.808 96.768-13.312 13.312-27.648 25.088-42.496 35.84-3.584 2.56-7.68 5.12-11.264 7.68l-5.632 3.584-3.072 2.048-2.048 1.536-9.216 6.144c-3.072 2.048-5.632 4.096-8.704 6.144-11.264 8.192-20.48 17.408-24.576 24.064-2.048 3.072-2.048 5.12-1.024 5.12 1.024 0.512 1.536-0.512 2.048 2.56 1.024 3.072 2.56 9.728 4.608 20.992 2.048 10.752 3.584 27.136 0.512 44.032s-10.24 33.792-18.432 45.568c-2.048 3.584-4.096 6.144-6.144 8.704-2.048 2.56-4.096 5.632-6.144 8.192-4.096 4.608-8.704 9.728-12.8 13.824-16.896 16.384-33.792 28.16-50.176 37.376-15.872 8.704-31.744 15.36-49.152 20.992-17.408 5.632-35.328 10.24-53.248 13.312-9.216 1.536-18.432 2.56-27.136 3.072-4.096 0.512-8.704 0.512-12.288 0.512h-10.24c-2.56 0-4.608-1.024-5.12-2.048-0.512-1.024-0.512-2.56-1.536-4.096-1.024-1.536-2.56-1.024-5.12-0.512-1.024 0.512-2.56 1.024-3.584 2.048-1.024 1.024-2.56 2.048-4.096 3.072-5.632 5.12-10.752 11.264-16.896 17.92-5.632 6.656-11.776 13.312-18.944 19.968-3.072 3.072-8.192 3.072-11.264 0-1.024-1.024-1.536-2.048-2.048-3.072-3.072-9.216-5.632-17.92-7.168-27.136-2.048-9.216-3.072-18.432-3.072-28.672 0-5.12 0.512-10.752 2.048-16.896 1.536-6.144 4.096-13.312 8.192-20.48 4.608-7.168 10.752-14.336 17.408-19.456 6.144-5.12 11.776-9.216 16.896-11.776 9.728-6.144 16.896-10.24 24.064-14.848l19.456-12.288 36.864-23.552c12.288-7.68 25.088-15.36 38.4-22.016 11.776-6.144 23.04-11.776 31.232-15.872 2.56-1.024 3.584-1.536 5.632-2.56l2.048-1.024c0.512 0 1.536-0.512 1.536-0.512 2.048-0.512 2.56 1.024 3.072 2.56 1.024 1.536 2.56 1.024 3.072-4.096 0.512-5.12 0-14.336 0-27.648 0-12.8 2.56-30.208 9.728-45.056 6.656-14.848 16.384-26.112 25.088-35.328 9.216-8.192 18.432-15.36 27.136-20.48 4.608-2.56 8.704-5.12 13.312-7.68 4.096-2.048 8.704-4.608 12.8-6.656s8.704-3.584 12.8-5.632l12.8-5.12 5.632-2.048 5.12-2.048c3.584-1.024 6.656-2.56 10.24-4.096 13.312-5.12 26.112-11.776 38.4-18.944 24.064-14.336 45.056-33.28 58.368-57.856 6.656-12.288 11.776-26.112 14.336-40.96 1.536-7.168 2.048-14.848 2.048-22.528 0-7.68-0.512-15.872-1.536-22.528v-0.512c-0.512-3.584 2.048-7.168 5.632-7.68 2.048 0.512 4.608 2.048 6.144 4.608z" fill="#232323" p-id="3248" data-spm-anchor-id="a313x.search_index.0.i1.24303a81Kjjufr" class=""></path><path d="M323.584 887.296c47.616 7.168 100.864 6.656 157.696-2.048 247.808-38.4 441.856-441.344 400.384-643.072-22.016 156.672-122.368 592.896-558.08 645.12z" fill="#2C843D" p-id="3249"></path><path d="M974.336 512.512c-15.36-11.776-37.888-9.216-49.664 6.144l-11.776 14.848c-35.84-19.456-75.264-33.28-75.264-33.28l-17.408 35.328s25.6 26.112 56.32 48.64l-9.216 11.776c-11.776 15.36-9.216 37.888 6.144 49.664 15.36 11.776 37.888 9.216 49.664-6.144l14.336-18.944c1.024-1.536 2.048-3.072 3.072-5.12 10.752 1.024 19.968-2.048 26.112-11.264 6.144-8.704 5.632-17.408 0.512-26.112l12.288-15.872c13.312-15.36 10.24-37.888-5.12-49.664z" fill="#A0A0A0" p-id="3250"></path><path d="M987.648 535.04c-1.536-8.704-5.632-16.896-13.312-22.528-15.36-11.776-37.888-9.216-49.664 6.144l-11.776 14.848c-35.84-19.456-75.264-33.28-75.264-33.28l-4.608 9.216c23.04 11.264 77.824 35.328 81.408 41.472 0 0.512 34.816-62.464 73.216-15.872z" fill="#C4C4C4" p-id="3251"></path><path d="M681.984 290.816a60.928 56.832 0 1 0 121.856 0 60.928 56.832 0 1 0-121.856 0Z" fill="#FFFFFF" p-id="3252"></path><path d="M705.536 290.816a37.376 34.816 0 1 0 74.752 0 37.376 34.816 0 1 0-74.752 0Z" fill="#FF4431" p-id="3253"></path><path d="M726.016 290.816a16.896 15.872 0 1 0 33.792 0 16.896 15.872 0 1 0-33.792 0Z" fill="#1A1A1A" p-id="3254"></path><path d="M478.72 340.48s-186.368 139.264-274.944 321.024l274.944-321.024zM315.392 885.248s150.016-186.368 303.616-193.024c0 0-235.52 139.264-281.6 196.096l-22.016-3.072zM115.2 740.352S168.96 446.464 273.408 362.496M130.048 757.248S262.656 442.368 330.752 384M182.272 790.528c0-1.536 30.208-134.144 148.48-189.952M253.44 847.36s58.368-66.56 224.768-126.464" fill="#232323" p-id="3255"></path><path d="M786.432 132.608c-4.096-1.024-8.704-1.536-12.8-2.56 40.96 41.984 88.064 107.008 112.64 197.12 6.656-99.328-23.04-177.152-99.84-194.56z" fill="#333333" p-id="3256"></path><path d="M381.44 523.264c0-7.68 83.968-131.072 120.32-129.536 36.352 1.536-161.28 177.152-161.28 177.152l40.96-47.616zM613.888 545.28s-52.224 31.744-52.224 55.296c0 23.552-36.352 28.672-36.352 28.672s66.56 9.728 75.776-28.672c9.728-37.888 52.736-25.088 12.8-55.296zM375.296 398.336s-1.536 1.024-3.584 2.56c-12.288 8.704-49.664 36.352-48.64 48.128 1.536 14.336 55.296-42.496 55.296-42.496s12.8-13.312-3.072-8.192z" fill="#D9EF7F" p-id="3257"></path><path d="M887.808 625.664c-17.408-15.872 9.728-37.888 9.728-37.888s-48.128-40.448-72.704-60.416l-4.096 8.192s25.6 26.112 56.32 48.64l-9.216 11.776c-11.776 15.36-9.216 37.888 6.144 49.664 15.36 11.776 37.888 9.216 49.664-6.144l4.608-6.144c-12.8 2.048-30.208 2.048-40.448-7.68z" fill="#606060" p-id="3258"></path></svg>